M48
; DRILL file {KiCad 5.1.4-3.fc30} date Mon 18 Nov 2019 01:31:03 AM CST
; FORMAT={-:-/ absolute / inch / decimal}
; #@! TF.CreationDate,2019-11-18T01:31:03-06:00
; #@! TF.GenerationSoftware,Kicad,Pcbnew,5.1.4-3.fc30
; #@! TF.FileFunction,NonPlated,1,2,NPTH
FMAT,2
INCH
T1C0.0709
%
G90
G05
T1
X0.3969Y-0.7039G85X0.3732Y-0.7039
G05
X0.7906Y-0.7039G85X0.7669Y-0.7039
G05
X2.0504Y-0.7039G85X2.0268Y-0.7039
G05
X0.3969Y-0.2343G85X0.3732Y-0.2343
G05
X2.7591Y-0.7039G85X2.7354Y-0.7039
G05
X2.2079Y-0.2343G85X2.1843Y-0.2343
G05
X2.2079Y-0.7039G85X2.1843Y-0.7039
G05
X2.8378Y-0.2343G85X2.8142Y-0.2343
G05
X2.3724Y-1.1799G85X2.3488Y-1.1799
G05
X0.5543Y-0.2343G85X0.5307Y-0.2343
G05
X2.6016Y-0.7039G85X2.578Y-0.7039
G05
X1.4992Y-0.2343G85X1.4756Y-0.2343
G05
X0.2394Y-0.2362G85X0.2157Y-0.2362
G05
X2.215Y-1.1799G85X2.1913Y-1.1799
G05
X0.2394Y-0.7087G85X0.2157Y-0.7087
G05
X2.5228Y-0.2343G85X2.4992Y-0.2343
G05
X3.1598Y-1.1799G85X3.1362Y-1.1799
G05
X0.948Y-0.7039G85X0.9244Y-0.7039
G05
X0.5543Y-0.7039G85X0.5307Y-0.7039
G05
X1.4992Y-0.7039G85X1.4756Y-0.7039
G05
X2.5299Y-1.1799G85X2.5063Y-1.1799
G05
X2.6874Y-1.1799G85X2.6638Y-1.1799
G05
X3.3173Y-1.1799G85X3.2937Y-1.1799
G05
X3.1528Y-0.2343G85X3.1291Y-0.2343
G05
X2.8449Y-1.1799G85X2.8213Y-1.1799
G05
X2.3654Y-0.2343G85X2.3417Y-0.2343
G05
X2.9953Y-0.2343G85X2.9717Y-0.2343
G05
X1.1055Y-0.2343G85X1.0819Y-0.2343
G05
X1.3417Y-0.7039G85X1.3181Y-0.7039
G05
X1.1055Y-0.7039G85X1.0819Y-0.7039
G05
X3.0024Y-1.1799G85X2.9787Y-1.1799
G05
X3.3102Y-0.2343G85X3.2866Y-0.2343
G05
X1.3417Y-0.2343G85X1.3181Y-0.2343
G05
X0.7906Y-0.2343G85X0.7669Y-0.2343
G05
X2.9953Y-0.7039G85X2.9717Y-0.7039
G05
X1.6567Y-0.7039G85X1.6331Y-0.7039
G05
X1.8929Y-0.7039G85X1.8693Y-0.7039
G05
X2.6803Y-0.2343G85X2.6567Y-0.2343
G05
X0.948Y-0.2343G85X0.9244Y-0.2343
G05
X2.4441Y-0.7039G85X2.4205Y-0.7039
G05
T0
M30
