M48
; DRILL file {KiCad 5.1.4-3.fc30} date Mon 18 Nov 2019 01:19:38 AM CST
; FORMAT={-:-/ absolute / inch / decimal}
; #@! TF.CreationDate,2019-11-18T01:19:38-06:00
; #@! TF.GenerationSoftware,Kicad,Pcbnew,5.1.4-3.fc30
; #@! TF.FileFunction,Plated,1,2,PTH
FMAT,2
INCH
T1C0.0079
T2C0.0118
T3C0.0236
T4C0.0335
%
G90
G05
T1
X1.6614Y-1.189
X1.6614Y-1.2392
X1.6614Y-1.2894
X1.6614Y-1.3396
X1.6614Y-1.3898
X1.7116Y-1.189
X1.7116Y-1.2392
X1.7116Y-1.2894
X1.7116Y-1.3396
X1.7116Y-1.3898
X1.7618Y-1.189
X1.7618Y-1.2392
X1.7618Y-1.2894
X1.7618Y-1.3396
X1.7618Y-1.3898
X1.812Y-1.189
X1.812Y-1.2392
X1.812Y-1.2894
X1.812Y-1.3396
X1.812Y-1.3898
X1.8622Y-1.189
X1.8622Y-1.2392
X1.8622Y-1.2894
X1.8622Y-1.3396
X1.8622Y-1.3898
T2
X0.0689Y-0.0689
X0.0689Y-1.9291
X0.1358Y-0.9862
X0.1595Y-0.9626
X0.2067Y-0.5315
X0.2559Y-0.3445
X0.315Y-0.5508
X0.4134Y-0.3445
X0.4626Y-0.5608
X0.4626Y-1.1024
X0.4724Y-1.2697
X0.5413Y-1.2697
X0.5709Y-0.3445
X0.7187Y-0.5708
X0.8071Y-0.3445
X0.8268Y-1.7028
X0.8762Y-0.5808
X0.9646Y-0.3445
X0.9646Y-0.9449
X0.9646Y-1.8898
X1.0109Y-1.059
X1.0236Y-1.8209
X1.0335Y-1.0338
X1.0335Y-0.9552
X1.0337Y-0.5908
X1.0531Y-1.6831
X1.122Y-0.3445
X1.1281Y-1.7656
X1.1403Y-1.5314
X1.158Y-1.5089
X1.1603Y-1.8023
X1.2008Y-1.5354
X1.2205Y-1.5059
X1.2699Y-0.6008
X1.3189Y-0.9642
X1.3199Y-1.0028
X1.3583Y-0.3445
X1.4274Y-0.6108
X1.4862Y-0.8071
X1.4885Y-1.8513
X1.5157Y-0.3445
X1.5157Y-1.1708
X1.5233Y-1.8519
X1.5256Y-1.4764
X1.5354Y-1.3287
X1.5491Y-1.1808
X1.5519Y-1.8572
X1.565Y-1.3189
X1.565Y-1.4075
X1.5748Y-1.8898
X1.624Y-1.0728
X1.624Y-1.1024
X1.6437Y-0.8071
X1.6929Y-1.0728
X1.6929Y-1.1024
X1.6929Y-1.5059
X1.7126Y-0.436
X1.7126Y-0.4695
X1.7421Y-0.5102
X1.8406Y-0.5118
X1.8811Y-0.8059
X2.0461Y-0.8082
X2.0571Y-0.5311
X2.0965Y-1.1516
X2.1063Y-0.4134
X2.1812Y-0.5375
X2.1949Y-0.3445
X2.2036Y-0.8082
X2.2047Y-1.0138
X2.2047Y-1.2992
X2.2638Y-0.4134
X2.3474Y-0.5463
X2.3524Y-0.3445
X2.3524Y-1.0138
X2.3622Y-1.2992
X2.4213Y-0.4134
X2.4323Y-0.8059
X2.4951Y-0.5561
X2.5098Y-0.3445
X2.5098Y-1.0138
X2.5197Y-1.2992
X2.5886Y-0.4134
X2.5898Y-0.8059
X2.628Y-0.5709
X2.6673Y-1.0138
X2.6685Y-0.3433
X2.6772Y-1.2992
X2.7362Y-0.4134
X2.7472Y-0.8058
X2.7904Y-0.5758
X2.826Y-0.3433
X2.8346Y-1.0138
X2.8346Y-1.2992
X2.8937Y-0.4134
X2.9823Y-0.8071
X2.9823Y-1.0138
X2.9835Y-0.3433
X2.9835Y-0.5524
X2.9921Y-1.2992
X3.061Y-0.4134
X3.061Y-0.5807
X3.1299Y-0.4331
X3.1299Y-0.5217
X3.1299Y-0.8071
X3.1299Y-0.8563
X3.1398Y-0.3445
X3.1398Y-0.9154
X3.1398Y-1.0138
X3.1496Y-1.2992
X3.2972Y-0.3445
X3.3071Y-1.0138
X3.3071Y-1.2992
X3.3268Y-0.502
X3.3268Y-0.6398
X3.3268Y-0.7972
X3.3268Y-0.8957
X3.3465Y-1.3681
X3.3661Y-0.3642
X3.3858Y-1.752
X3.435Y-0.0689
X3.435Y-1.9291
T3
X0.0472Y-0.378
X0.0492Y-1.122
X0.0492Y-1.3386
X0.1575Y-1.2205
X0.1575Y-1.3484
X0.1673Y-0.5709
X0.1673Y-0.8661
X0.187Y-1.0236
X0.1898Y-0.3937
X0.3372Y-0.3937
X0.3445Y-1.5945
X0.3937Y-1.2992
X0.5807Y-1.1024
X0.6398Y-1.5748
X0.6398Y-1.6732
X0.6693Y-1.0335
X0.7579Y-0.3937
X0.8169Y-1.9587
X0.9154Y-0.3937
X0.9154Y-1.378
X0.9646Y-1.6156
X1.063Y-1.1024
X1.063Y-0.3937
X1.0948Y-1.661
X1.2106Y-1.4272
X1.25Y-1.7717
X1.2598Y-1.1024
X1.3065Y-1.2376
X1.3091Y-1.8799
X1.3091Y-0.3937
X1.3484Y-1.5846
X1.3976Y-1.8701
X1.4075Y-1.5157
X1.4075Y-1.6732
X1.4272Y-1.7618
X1.4469Y-1.2598
X1.4498Y-1.088
X1.4665Y-0.3937
X1.5274Y-1.8898
X1.5846Y-1.4764
X1.601Y-1.6043
X1.6043Y-1.1319
X1.6142Y-1.7913
X1.6535Y-0.2953
X1.752Y-1.9587
X1.7717Y-1.8701
X1.7815Y-1.063
X1.8524Y-0.2963
X1.8602Y-1.7815
X1.9291Y-1.1319
X1.9936Y-1.8263
X2.0571Y-1.6142
X2.3031Y-1.3878
X2.4213Y-1.5748
X2.9331Y-1.6142
X3.3858Y-1.5157
T4
X1.6535Y-0.1658
X1.8504Y-0.1658
T3
X1.6142Y-0.0733G85X1.6142Y-0.0458
G05
X1.8898Y-0.0458G85X1.8898Y-0.0733
G05
T0
M30
