G04 #@! TF.GenerationSoftware,KiCad,Pcbnew,5.1.4-3.fc30*
G04 #@! TF.CreationDate,2019-11-18T01:19:32-06:00*
G04 #@! TF.ProjectId,blinkencard,626c696e-6b65-46e6-9361-72642e6b6963,rev?*
G04 #@! TF.SameCoordinates,Original*
G04 #@! TF.FileFunction,Soldermask,Bot*
G04 #@! TF.FilePolarity,Negative*
%FSLAX46Y46*%
G04 Gerber Fmt 4.6, Leading zero omitted, Abs format (unit mm)*
G04 Created by KiCad (PCBNEW 5.1.4-3.fc30) date 2019-11-18 01:19:32*
%MOMM*%
%LPD*%
G04 APERTURE LIST*
%ADD10C,0.050000*%
%ADD11O,2.800000X2.200000*%
%ADD12O,1.600000X2.300000*%
%ADD13C,1.850000*%
%ADD14R,1.950000X1.700000*%
G04 APERTURE END LIST*
D10*
X1000000Y-50800000D02*
G75*
G02X0Y-49800000I0J1000000D01*
G01*
X88900000Y-49800000D02*
G75*
G02X87900000Y-50800000I-1000000J0D01*
G01*
X87900000Y0D02*
G75*
G02X88900000Y-1000000I0J-1000000D01*
G01*
X0Y-1000000D02*
G75*
G02X1000000Y0I1000000J0D01*
G01*
X0Y-1000000D02*
X0Y-49800000D01*
X1000000Y-50800000D02*
X87900000Y-50800000D01*
X88900000Y-1000000D02*
X88900000Y-49800000D01*
X1000000Y0D02*
X87900000Y0D01*
D11*
G04 #@! TO.C,D57*
X83960000Y-29970000D03*
G04 #@! TD*
G04 #@! TO.C,D56*
X79960000Y-29970000D03*
G04 #@! TD*
G04 #@! TO.C,D55*
X75960000Y-29970000D03*
G04 #@! TD*
G04 #@! TO.C,D54*
X71960000Y-29970000D03*
G04 #@! TD*
G04 #@! TO.C,D53*
X67960000Y-29970000D03*
G04 #@! TD*
G04 #@! TO.C,D52*
X63960000Y-29970000D03*
G04 #@! TD*
G04 #@! TO.C,D51*
X59960000Y-29970000D03*
G04 #@! TD*
G04 #@! TO.C,D50*
X55960000Y-29970000D03*
G04 #@! TD*
G04 #@! TO.C,D47*
X83780000Y-5950000D03*
G04 #@! TD*
G04 #@! TO.C,D46*
X79780000Y-5950000D03*
G04 #@! TD*
G04 #@! TO.C,D45*
X75780000Y-5950000D03*
G04 #@! TD*
G04 #@! TO.C,D44*
X71780000Y-5950000D03*
G04 #@! TD*
G04 #@! TO.C,D43*
X67780000Y-5950000D03*
G04 #@! TD*
G04 #@! TO.C,D42*
X63780000Y-5950000D03*
G04 #@! TD*
G04 #@! TO.C,D41*
X59780000Y-5950000D03*
G04 #@! TD*
G04 #@! TO.C,D40*
X55780000Y-5950000D03*
G04 #@! TD*
G04 #@! TO.C,D37*
X37780000Y-5950000D03*
G04 #@! TD*
G04 #@! TO.C,D36*
X33780000Y-5950000D03*
G04 #@! TD*
G04 #@! TO.C,D35*
X27780000Y-5950000D03*
G04 #@! TD*
G04 #@! TO.C,D34*
X23780000Y-5950000D03*
G04 #@! TD*
G04 #@! TO.C,D33*
X19780000Y-5950000D03*
G04 #@! TD*
G04 #@! TO.C,D32*
X13780000Y-5950000D03*
G04 #@! TD*
G04 #@! TO.C,D31*
X9780000Y-5950000D03*
G04 #@! TD*
G04 #@! TO.C,D30*
X5780000Y-6000000D03*
G04 #@! TD*
G04 #@! TO.C,D27*
X75780000Y-17880000D03*
G04 #@! TD*
G04 #@! TO.C,D26*
X69780000Y-17880000D03*
G04 #@! TD*
G04 #@! TO.C,D25*
X65780000Y-17880000D03*
G04 #@! TD*
G04 #@! TO.C,D24*
X61780000Y-17880000D03*
G04 #@! TD*
G04 #@! TO.C,D23*
X55780000Y-17880000D03*
G04 #@! TD*
G04 #@! TO.C,D22*
X51780000Y-17880000D03*
G04 #@! TD*
G04 #@! TO.C,D21*
X47780000Y-17880000D03*
G04 #@! TD*
G04 #@! TO.C,D20*
X41780000Y-17880000D03*
G04 #@! TD*
G04 #@! TO.C,D17*
X37780000Y-17880000D03*
G04 #@! TD*
G04 #@! TO.C,D16*
X33780000Y-17880000D03*
G04 #@! TD*
G04 #@! TO.C,D15*
X27780000Y-17880000D03*
G04 #@! TD*
G04 #@! TO.C,D14*
X23780000Y-17880000D03*
G04 #@! TD*
G04 #@! TO.C,D13*
X19780000Y-17880000D03*
G04 #@! TD*
G04 #@! TO.C,D12*
X13780000Y-17880000D03*
G04 #@! TD*
G04 #@! TO.C,D11*
X9780000Y-17880000D03*
G04 #@! TD*
G04 #@! TO.C,D10*
X5780000Y-18000000D03*
G04 #@! TD*
D12*
G04 #@! TO.C,J1*
X41000000Y-1512500D03*
X48000000Y-1512500D03*
D13*
X42000000Y-4212500D03*
X47000000Y-4212500D03*
G04 #@! TD*
D14*
G04 #@! TO.C,SW3*
X84230000Y-38750000D03*
X84230000Y-43250000D03*
X76270000Y-43250000D03*
X76270000Y-38750000D03*
G04 #@! TD*
G04 #@! TO.C,SW1*
X10270000Y-43000000D03*
X10270000Y-47500000D03*
X18230000Y-47500000D03*
X18230000Y-43000000D03*
G04 #@! TD*
G04 #@! TO.C,SW2*
X18230000Y-34500000D03*
X18230000Y-39000000D03*
X10270000Y-39000000D03*
X10270000Y-34500000D03*
G04 #@! TD*
G04 #@! TO.C,SW4*
X65020000Y-38750000D03*
X65020000Y-43250000D03*
X72980000Y-43250000D03*
X72980000Y-38750000D03*
G04 #@! TD*
M02*
