G04 #@! TF.GenerationSoftware,KiCad,Pcbnew,5.1.5-1.fc31*
G04 #@! TF.CreationDate,2019-12-19T17:21:19-06:00*
G04 #@! TF.ProjectId,blinkencard,626c696e-6b65-46e6-9361-72642e6b6963,V2.0*
G04 #@! TF.SameCoordinates,Original*
G04 #@! TF.FileFunction,Soldermask,Bot*
G04 #@! TF.FilePolarity,Negative*
%FSLAX46Y46*%
G04 Gerber Fmt 4.6, Leading zero omitted, Abs format (unit mm)*
G04 Created by KiCad (PCBNEW 5.1.5-1.fc31) date 2019-12-19 17:21:19*
%MOMM*%
%LPD*%
G04 APERTURE LIST*
G04 #@! TA.AperFunction,Profile*
%ADD10C,0.050000*%
G04 #@! TD*
%ADD11C,1.300000*%
%ADD12O,2.800000X2.200000*%
%ADD13O,1.600000X2.300000*%
%ADD14C,1.850000*%
%ADD15R,1.950000X1.700000*%
G04 APERTURE END LIST*
D10*
X23860000Y-73660000D02*
G75*
G02X22860000Y-72660000I0J1000000D01*
G01*
X111760000Y-72660000D02*
G75*
G02X110760000Y-73660000I-1000000J0D01*
G01*
X110760000Y-22860000D02*
G75*
G02X111760000Y-23860000I0J-1000000D01*
G01*
X22860000Y-23860000D02*
G75*
G02X23860000Y-22860000I1000000J0D01*
G01*
X22860000Y-23860000D02*
X22860000Y-72660000D01*
X23860000Y-73660000D02*
X110760000Y-73660000D01*
X111760000Y-23860000D02*
X111760000Y-72660000D01*
X23860000Y-22860000D02*
X110760000Y-22860000D01*
D11*
G04 #@! TO.C,SW5*
X25110000Y-61010000D03*
X25110000Y-54210000D03*
G04 #@! TD*
D12*
G04 #@! TO.C,D57*
X106820000Y-52830000D03*
G04 #@! TD*
G04 #@! TO.C,D56*
X102820000Y-52830000D03*
G04 #@! TD*
G04 #@! TO.C,D55*
X98820000Y-52830000D03*
G04 #@! TD*
G04 #@! TO.C,D54*
X94820000Y-52830000D03*
G04 #@! TD*
G04 #@! TO.C,D53*
X90820000Y-52830000D03*
G04 #@! TD*
G04 #@! TO.C,D52*
X86820000Y-52830000D03*
G04 #@! TD*
G04 #@! TO.C,D51*
X82820000Y-52830000D03*
G04 #@! TD*
G04 #@! TO.C,D50*
X78820000Y-52830000D03*
G04 #@! TD*
G04 #@! TO.C,D47*
X106640000Y-28810000D03*
G04 #@! TD*
G04 #@! TO.C,D46*
X102640000Y-28810000D03*
G04 #@! TD*
G04 #@! TO.C,D45*
X98640000Y-28810000D03*
G04 #@! TD*
G04 #@! TO.C,D44*
X94640000Y-28810000D03*
G04 #@! TD*
G04 #@! TO.C,D43*
X90640000Y-28810000D03*
G04 #@! TD*
G04 #@! TO.C,D42*
X86640000Y-28810000D03*
G04 #@! TD*
G04 #@! TO.C,D41*
X82640000Y-28810000D03*
G04 #@! TD*
G04 #@! TO.C,D40*
X78640000Y-28810000D03*
G04 #@! TD*
G04 #@! TO.C,D37*
X60640000Y-28810000D03*
G04 #@! TD*
G04 #@! TO.C,D36*
X56640000Y-28810000D03*
G04 #@! TD*
G04 #@! TO.C,D35*
X50640000Y-28810000D03*
G04 #@! TD*
G04 #@! TO.C,D34*
X46640000Y-28810000D03*
G04 #@! TD*
G04 #@! TO.C,D33*
X42640000Y-28810000D03*
G04 #@! TD*
G04 #@! TO.C,D32*
X36640000Y-28810000D03*
G04 #@! TD*
G04 #@! TO.C,D31*
X32640000Y-28810000D03*
G04 #@! TD*
G04 #@! TO.C,D30*
X28640000Y-28860000D03*
G04 #@! TD*
G04 #@! TO.C,D27*
X98640000Y-40740000D03*
G04 #@! TD*
G04 #@! TO.C,D26*
X92640000Y-40740000D03*
G04 #@! TD*
G04 #@! TO.C,D25*
X88640000Y-40740000D03*
G04 #@! TD*
G04 #@! TO.C,D24*
X84640000Y-40740000D03*
G04 #@! TD*
G04 #@! TO.C,D23*
X78640000Y-40740000D03*
G04 #@! TD*
G04 #@! TO.C,D22*
X74640000Y-40740000D03*
G04 #@! TD*
G04 #@! TO.C,D21*
X70640000Y-40740000D03*
G04 #@! TD*
G04 #@! TO.C,D20*
X64640000Y-40740000D03*
G04 #@! TD*
G04 #@! TO.C,D17*
X60640000Y-40740000D03*
G04 #@! TD*
G04 #@! TO.C,D16*
X56640000Y-40740000D03*
G04 #@! TD*
G04 #@! TO.C,D15*
X50640000Y-40740000D03*
G04 #@! TD*
G04 #@! TO.C,D14*
X46640000Y-40740000D03*
G04 #@! TD*
G04 #@! TO.C,D13*
X42640000Y-40740000D03*
G04 #@! TD*
G04 #@! TO.C,D12*
X36640000Y-40740000D03*
G04 #@! TD*
G04 #@! TO.C,D11*
X32640000Y-40740000D03*
G04 #@! TD*
G04 #@! TO.C,D10*
X28640000Y-40860000D03*
G04 #@! TD*
D13*
G04 #@! TO.C,J1*
X63860000Y-24372500D03*
X70860000Y-24372500D03*
D14*
X64860000Y-27072500D03*
X69860000Y-27072500D03*
G04 #@! TD*
D15*
G04 #@! TO.C,SW3*
X107090000Y-61610000D03*
X107090000Y-66110000D03*
X99130000Y-66110000D03*
X99130000Y-61610000D03*
G04 #@! TD*
G04 #@! TO.C,SW1*
X33130000Y-61610000D03*
X33130000Y-66110000D03*
X41090000Y-66110000D03*
X41090000Y-61610000D03*
G04 #@! TD*
G04 #@! TO.C,SW2*
X41090000Y-50360000D03*
X41090000Y-54860000D03*
X33130000Y-54860000D03*
X33130000Y-50360000D03*
G04 #@! TD*
G04 #@! TO.C,SW4*
X87880000Y-61610000D03*
X87880000Y-66110000D03*
X95840000Y-66110000D03*
X95840000Y-61610000D03*
G04 #@! TD*
M02*
