M48
; DRILL file {KiCad 5.1.5-1.fc31} date Thu 19 Dec 2019 05:21:46 PM CST
; FORMAT={-:-/ absolute / inch / decimal}
; #@! TF.CreationDate,2019-12-19T17:21:46-06:00
; #@! TF.GenerationSoftware,Kicad,Pcbnew,5.1.5-1.fc31
; #@! TF.FileFunction,NonPlated,1,2,NPTH
FMAT,2
INCH
T1C0.0354
T2C0.0709
%
G90
G05
T1
X0.9886Y-2.1343
X0.9886Y-2.402
T2
X1.848Y-1.6039G85X1.8244Y-1.6039
G05
X3.5874Y-2.0799G85X3.5638Y-2.0799
G05
X3.4228Y-1.1343G85X3.3992Y-1.1343
G05
X3.8953Y-1.1343G85X3.8717Y-1.1343
G05
X3.8953Y-1.6039G85X3.8717Y-1.6039
G05
X2.3992Y-1.1343G85X2.3756Y-1.1343
G05
X2.2417Y-1.6039G85X2.2181Y-1.6039
G05
X3.3441Y-1.6039G85X3.3205Y-1.6039
G05
X4.2102Y-1.1343G85X4.1866Y-1.1343
G05
X2.0055Y-1.6039G85X1.9819Y-1.6039
G05
X3.5803Y-1.1343G85X3.5567Y-1.1343
G05
X3.2724Y-2.0799G85X3.2488Y-2.0799
G05
X1.4543Y-1.1343G85X1.4307Y-1.1343
G05
X2.7929Y-1.6039G85X2.7693Y-1.6039
G05
X1.6906Y-1.6039G85X1.6669Y-1.6039
G05
X1.6906Y-1.1343G85X1.6669Y-1.1343
G05
X4.0598Y-2.0799G85X4.0362Y-2.0799
G05
X3.7449Y-2.0799G85X3.7213Y-2.0799
G05
X1.2969Y-1.1343G85X1.2732Y-1.1343
G05
X3.6591Y-1.6039G85X3.6354Y-1.6039
G05
X2.3992Y-1.6039G85X2.3756Y-1.6039
G05
X2.0055Y-1.1343G85X1.9819Y-1.1343
G05
X1.2969Y-1.6039G85X1.2732Y-1.6039
G05
X2.5567Y-1.6039G85X2.5331Y-1.6039
G05
X3.115Y-2.0799G85X3.0913Y-2.0799
G05
X1.848Y-1.1343G85X1.8244Y-1.1343
G05
X3.4299Y-2.0799G85X3.4063Y-2.0799
G05
X3.9024Y-2.0799G85X3.8787Y-2.0799
G05
X3.2654Y-1.1343G85X3.2417Y-1.1343
G05
X1.1394Y-1.6087G85X1.1157Y-1.6087
G05
X3.1079Y-1.6039G85X3.0843Y-1.6039
G05
X3.7378Y-1.1343G85X3.7142Y-1.1343
G05
X1.1394Y-1.1362G85X1.1157Y-1.1362
G05
X2.2417Y-1.1343G85X2.2181Y-1.1343
G05
X2.9504Y-1.6039G85X2.9268Y-1.6039
G05
X3.5016Y-1.6039G85X3.478Y-1.6039
G05
X1.4543Y-1.6039G85X1.4307Y-1.6039
G05
X4.2173Y-2.0799G85X4.1937Y-2.0799
G05
X3.1079Y-1.1343G85X3.0843Y-1.1343
G05
X4.0528Y-1.1343G85X4.0291Y-1.1343
G05
T0
M30
