M48
; DRILL file {KiCad 5.1.5-1.fc31} date Thu 19 Dec 2019 05:21:46 PM CST
; FORMAT={-:-/ absolute / inch / decimal}
; #@! TF.CreationDate,2019-12-19T17:21:46-06:00
; #@! TF.GenerationSoftware,Kicad,Pcbnew,5.1.5-1.fc31
; #@! TF.FileFunction,Plated,1,2,PTH
FMAT,2
INCH
T1C0.0079
T2C0.0118
T3C0.0236
T4C0.0335
%
G90
G05
T1
X2.7179Y-2.2553
X2.7179Y-2.3011
X2.7179Y-2.3469
X2.7179Y-2.3926
X2.7179Y-2.4384
X2.7637Y-2.2553
X2.7637Y-2.3011
X2.7637Y-2.3469
X2.7637Y-2.3926
X2.7637Y-2.4384
X2.8094Y-2.2553
X2.8094Y-2.3011
X2.8094Y-2.3469
X2.8094Y-2.3926
X2.8094Y-2.4384
X2.8552Y-2.2553
X2.8552Y-2.3011
X2.8552Y-2.3469
X2.8552Y-2.3926
X2.8552Y-2.4384
X2.901Y-2.2553
X2.901Y-2.3011
X2.901Y-2.3469
X2.901Y-2.3926
X2.901Y-2.4384
T2
X0.9591Y-2.4748
X0.9689Y-0.9689
X0.9787Y-1.3528
X0.9787Y-1.3823
X0.9984Y-1.5398
X0.9984Y-1.5693
X1.028Y-1.1657
X1.0969Y-2.6717
X1.0996Y-2.7335
X1.1067Y-1.7268
X1.1165Y-1.4413
X1.1559Y-1.4413
X1.1815Y-1.2173
X1.2051Y-1.5004
X1.215Y-1.835
X1.215Y-1.776
X1.2248Y-2.3764
X1.2309Y-1.2153
X1.2445Y-1.3921
X1.2445Y-1.3626
X1.3134Y-2.7012
X1.3134Y-2.8587
X1.3528Y-1.4413
X1.3823Y-1.274
X1.4118Y-1.274
X1.4413Y-1.9335
X1.4512Y-2.2091
X1.4512Y-2.337
X1.452Y-2.4269
X1.4616Y-2.4
X1.4807Y-2.4748
X1.4807Y-2.5634
X1.4972Y-1.8023
X1.5102Y-1.4709
X1.5102Y-2.4006
X1.5136Y-2.4419
X1.5201Y-1.0476
X1.5201Y-1.2346
X1.5339Y-2.6323
X1.5383Y-1.8785
X1.5391Y-1.4719
X1.5496Y-1.6283
X1.5496Y-1.6992
X1.5496Y-1.7957
X1.5654Y-2.6323
X1.5693Y-1.2543
X1.5693Y-1.2839
X1.5693Y-1.4709
X1.5811Y-1.6283
X1.5811Y-1.6992
X1.6087Y-1.0673
X1.6579Y-2.2189
X1.6677Y-2.278
X1.6677Y-2.4846
X1.6737Y-2.5399
X1.6776Y-2.4256
X1.6913Y-2.6323
X1.6972Y-1.9925
X1.6972Y-2.1795
X1.7071Y-1.2445
X1.7071Y-1.4807
X1.7228Y-2.6323
X1.7543Y-2.6323
X1.7762Y-1.4808
X1.7858Y-2.6323
X1.8154Y-1.2937
X1.8173Y-2.6323
X1.8488Y-2.6323
X1.8646Y-1.2445
X1.8803Y-2.6323
X1.9118Y-2.6323
X1.9337Y-1.4908
X1.9433Y-2.6323
X1.963Y-1.2937
X1.9748Y-2.6323
X2.0063Y-2.6323
X2.022Y-1.2445
X2.0378Y-2.6323
X2.0693Y-2.6323
X2.0811Y-2.4059
X2.089Y-1.6283
X2.089Y-1.6992
X2.1008Y-1.0673
X2.1008Y-1.0969
X2.1008Y-2.6323
X2.1237Y-2.137
X2.1244Y-1.6283
X2.1244Y-1.6992
X2.1303Y-2.0811
X2.1303Y-2.3665
X2.1303Y-2.4059
X2.1323Y-2.6323
X2.1367Y-2.3107
X2.1402Y-2.2189
X2.1402Y-2.2583
X2.1598Y-1.9925
X2.1638Y-2.6323
X2.1697Y-2.5437
X2.1699Y-1.5008
X2.17Y-2.3268
X2.1894Y-1.8744
X2.1953Y-2.6323
X2.2091Y-1.2937
X2.2189Y-1.8744
X2.2268Y-2.6323
X2.2583Y-1.2445
X2.2583Y-2.6323
X2.3075Y-2.0024
X2.3075Y-2.1598
X2.3075Y-2.4453
X2.3075Y-2.5043
X2.3272Y-2.2189
X2.3272Y-2.2484
X2.3272Y-2.278
X2.3272Y-2.3075
X2.3272Y-2.337
X2.3272Y-2.3665
X2.3274Y-1.5108
X2.3469Y-2.5732
X2.3665Y-1.2937
X2.3764Y-1.8055
X2.3862Y-1.7071
X2.3961Y-2.3567
X2.3961Y-2.5634
X2.4059Y-1.835
X2.4157Y-1.2445
X2.4157Y-2.1205
X2.4354Y-2.0909
X2.4354Y-2.3567
X2.4472Y-2.6323
X2.465Y-1.2642
X2.4846Y-2.524
X2.4846Y-2.8587
X2.4945Y-2.022
X2.4945Y-2.0516
X2.5142Y-2.1697
X2.5142Y-2.2091
X2.5142Y-2.3469
X2.5437Y-1.7071
X2.5437Y-2.1106
X2.5437Y-2.2091
X2.5437Y-2.3578
X2.5457Y-2.5693
X2.5634Y-2.6815
X2.5732Y-2.0811
X2.5732Y-2.1874
X2.5732Y-2.215
X2.5732Y-2.5693
X2.6205Y-2.3882
X2.6224Y-1.5299
X2.6224Y-1.589
X2.6323Y-2.5634
X2.6334Y-2.4551
X2.6421Y-2.5339
X2.652Y-1.5299
X2.652Y-1.589
X2.652Y-2.652
X2.652Y-2.7012
X2.6618Y-2.15
X2.6837Y-2.52
X2.7006Y-2.5431
X2.7209Y-2.5634
X2.7406Y-1.8154
X2.7406Y-1.9925
X2.7444Y-2.5377
X2.7465Y-1.7701
X2.7504Y-1.8843
X2.7504Y-1.9236
X2.7701Y-1.8154
X2.7799Y-1.9728
X2.7837Y-1.7033
X2.7898Y-1.3921
X2.8252Y-1.7701
X2.8298Y-2.5726
X2.8364Y-1.4195
X2.839Y-1.9236
X2.839Y-1.963
X2.8581Y-2.5639
X2.898Y-2.1205
X2.898Y-2.152
X2.9461Y-1.7082
X2.9571Y-1.4311
X2.9689Y-2.1815
X2.9866Y-2.0909
X2.9866Y-2.5437
X2.9867Y-2.203
X2.9965Y-1.9138
X2.9965Y-1.9531
X2.9965Y-2.1303
X3.0024Y-2.3803
X3.0063Y-1.3134
X3.0142Y-2.2622
X3.0161Y-2.5437
X3.0457Y-2.7701
X3.0555Y-2.4748
X3.0555Y-2.5043
X3.0752Y-2.6224
X3.0812Y-1.4375
X3.085Y-1.963
X3.0949Y-1.2445
X3.0949Y-2.4846
X3.1036Y-1.7082
X3.1244Y-2.4846
X3.1323Y-2.278
X3.1323Y-2.3803
X3.1638Y-1.3134
X3.1638Y-2.15
X3.1638Y-2.6618
X3.1835Y-2.0024
X3.1933Y-2.278
X3.2228Y-1.9335
X3.2268Y-2.3803
X3.2474Y-1.4463
X3.2524Y-1.2445
X3.2622Y-2.1992
X3.2622Y-2.6618
X3.3213Y-1.3134
X3.3311Y-2.652
X3.3323Y-1.7059
X3.3409Y-2.0024
X3.3951Y-1.4561
X3.4098Y-1.2445
X3.4098Y-1.8154
X3.4098Y-1.9236
X3.4197Y-2.1992
X3.4394Y-1.8154
X3.4591Y-1.9236
X3.4886Y-1.3134
X3.4898Y-1.7059
X3.528Y-1.4709
X3.5685Y-1.2433
X3.5772Y-2.1992
X3.6067Y-1.8163
X3.6362Y-1.3134
X3.6472Y-1.7058
X3.6854Y-1.4808
X3.726Y-1.2433
X3.7346Y-2.1992
X3.7346Y-2.6815
X3.7346Y-2.7209
X3.7543Y-1.7957
X3.7937Y-1.3134
X3.8134Y-2.0024
X3.8429Y-2.3862
X3.8823Y-1.7071
X3.8835Y-1.2433
X3.8921Y-2.1896
X3.9315Y-1.8055
X3.9413Y-1.4906
X3.9413Y-2.2484
X3.961Y-1.3134
X3.9709Y-2.0024
X4.0201Y-1.4906
X4.0299Y-1.7071
X4.0299Y-1.7563
X4.0398Y-1.2445
X4.0398Y-1.8055
X4.0398Y-1.9138
X4.0486Y-2.1982
X4.1283Y-2.0024
X4.1602Y-1.8398
X4.1874Y-2.3567
X4.1917Y-1.3047
X4.1972Y-1.2445
X4.2071Y-1.9138
X4.2071Y-2.1992
X4.2268Y-1.402
X4.2268Y-1.4315
X4.2268Y-1.5102
X4.2268Y-1.5398
X4.2268Y-1.6677
X4.2268Y-1.6972
X4.2268Y-1.7957
X4.2268Y-1.8252
X4.2957Y-2.3665
X4.3055Y-2.1992
X4.335Y-0.9689
X4.335Y-2.8291
X4.3547Y-2.4453
X4.3646Y-1.2445
T4
X2.5535Y-1.0658
X2.7504Y-1.0658
T3
X2.5142Y-0.9733G85X2.5142Y-0.9458
G05
X2.7898Y-0.9458G85X2.7898Y-0.9733
G05
T0
M30
